<svg width="104" height="29" viewBox="0 0 104 29" fill="none" xmlns="http://www.w3.org/2000/svg">
<path d="M16.44 28V22.84H6.12V0.44H0.24V28H16.44ZM38.9647 14.28C38.9647 16.56 38.1647 18.52 36.5647 20.16C35.0047 21.8 33.0847 22.6 30.8047 22.6C28.5247 22.6 26.6047 21.8 25.0447 20.2C23.4847 18.56 22.6847 16.6 22.6847 14.28C22.6847 11.96 23.4847 10 25.0447 8.36C26.6047 6.72 28.5247 5.92 30.8047 5.92C33.0847 5.92 35.0047 6.72 36.5647 8.36C38.1647 10 38.9647 11.96 38.9647 14.28ZM16.8447 14.28C16.8447 18.16 18.2047 21.52 20.8847 24.28C23.6047 27.04 26.9247 28.4 30.8047 28.4C34.6847 28.4 38.0047 27.04 40.7247 24.28C43.4447 21.52 44.8047 18.16 44.8047 14.28C44.8047 10.36 43.4447 7.04 40.7247 4.28C38.0447 1.52 34.7247 0.119999 30.8047 0.119999C26.9247 0.119999 23.6047 1.52 20.8847 4.28C18.2047 7.04 16.8447 10.36 16.8447 14.28ZM70.9747 4.64C68.5347 1.8 64.7747 0.119999 60.6147 0.119999C56.6547 0.119999 53.3347 1.52 50.5747 4.28C47.8547 7.04 46.4947 10.36 46.4947 14.28C46.4947 18.16 47.8547 21.52 50.5747 24.28C53.3347 27.04 56.6547 28.4 60.6147 28.4C64.7347 28.4 68.0147 27.16 70.4147 24.72C72.8547 22.24 74.0547 18.52 74.0547 13.52H59.8947V18.28H67.2947C67.2547 19.68 66.5347 20.8 65.1347 21.72C63.7347 22.6 62.2147 23.04 60.6147 23.04C58.3347 23.04 56.3747 22.2 54.7747 20.48C53.1747 18.76 52.3747 16.68 52.3747 14.28C52.3747 11.88 53.1747 9.84 54.7347 8.12C56.3347 6.4 58.2947 5.56 60.6147 5.56C62.9747 5.56 65.0147 6.48 66.6547 8.36L70.9747 4.64ZM97.2491 14.28C97.2491 16.56 96.4491 18.52 94.8491 20.16C93.2891 21.8 91.3691 22.6 89.0891 22.6C86.8091 22.6 84.8891 21.8 83.3291 20.2C81.7691 18.56 80.9691 16.6 80.9691 14.28C80.9691 11.96 81.7691 10 83.3291 8.36C84.8891 6.72 86.8091 5.92 89.0891 5.92C91.3691 5.92 93.2891 6.72 94.8491 8.36C96.4491 10 97.2491 11.96 97.2491 14.28ZM75.1291 14.28C75.1291 18.16 76.4891 21.52 79.1691 24.28C81.8891 27.04 85.2091 28.4 89.0891 28.4C92.9691 28.4 96.2891 27.04 99.0091 24.28C101.729 21.52 103.089 18.16 103.089 14.28C103.089 10.36 101.729 7.04 99.0091 4.28C96.3291 1.52 93.0091 0.119999 89.0891 0.119999C85.2091 0.119999 81.8891 1.52 79.1691 4.28C76.4891 7.04 75.1291 10.36 75.1291 14.28Z" fill="white"/>
</svg>
