<svg width="104" height="29" viewBox="0 0 104 29" fill="none" xmlns="http://www.w3.org/2000/svg">
<path d="M16.76 22.16H6.84V0.44H0.0800003V28H16.76V22.16ZM17.0372 14.24C17.0372 18.12 18.3972 21.48 21.1572 24.24C23.9172 27 27.1972 28.36 31.0772 28.36C34.9972 28.36 38.3172 27 41.0372 24.24C43.7972 21.48 45.1572 18.12 45.1572 14.24C45.1572 10.32 43.7972 7 41.0372 4.24C38.3172 1.48 34.9972 0.0799994 31.0772 0.0799994C27.1972 0.0799994 23.8772 1.48 21.1172 4.24C18.3972 7 17.0372 10.32 17.0372 14.24ZM31.0772 21.64C29.0372 21.64 27.3172 20.92 25.9172 19.48C24.5172 18.04 23.7972 16.28 23.7972 14.24C23.7972 12.2 24.5172 10.44 25.9172 9C27.3172 7.52 29.0372 6.8 31.0772 6.8C33.1172 6.8 34.8372 7.52 36.2772 9C37.7172 10.44 38.4372 12.2 38.4372 14.24C38.4372 16.28 37.7172 18.04 36.2772 19.48C34.8772 20.92 33.1172 21.64 31.0772 21.64ZM71.5691 4.96C69.1291 1.92 65.1691 0.0799994 60.8091 0.0799994C56.8491 0.0799994 53.4891 1.48 50.7291 4.24C47.9691 7 46.6091 10.32 46.6091 14.24C46.6091 18.12 47.9691 21.48 50.7291 24.24C53.4891 27 56.8491 28.36 60.8091 28.36C64.9691 28.36 68.2891 27.12 70.7291 24.6C73.1691 22.08 74.4091 18.32 74.4091 13.24H59.4091V18.6H67.1291C66.5291 21.04 64.4491 22.28 60.8091 22.28C58.7291 22.28 56.9691 21.48 55.5291 19.92C54.0891 18.32 53.3691 16.44 53.3691 14.24C53.3691 12.04 54.0891 10.16 55.5291 8.6C56.9691 7.04 58.7291 6.28 60.8091 6.28C63.0891 6.28 65.0491 7.24 66.6091 9.16L71.5691 4.96ZM75.2434 14.24C75.2434 18.12 76.6034 21.48 79.3634 24.24C82.1234 27 85.4034 28.36 89.2834 28.36C93.2034 28.36 96.5234 27 99.2434 24.24C102.003 21.48 103.363 18.12 103.363 14.24C103.363 10.32 102.003 7 99.2434 4.24C96.5234 1.48 93.2034 0.0799994 89.2834 0.0799994C85.4034 0.0799994 82.0834 1.48 79.3234 4.24C76.6034 7 75.2434 10.32 75.2434 14.24ZM89.2834 21.64C87.2434 21.64 85.5234 20.92 84.1234 19.48C82.7234 18.04 82.0034 16.28 82.0034 14.24C82.0034 12.2 82.7234 10.44 84.1234 9C85.5234 7.52 87.2434 6.8 89.2834 6.8C91.3234 6.8 93.0434 7.52 94.4834 9C95.9234 10.44 96.6434 12.2 96.6434 14.24C96.6434 16.28 95.9234 18.04 94.4834 19.48C93.0834 20.92 91.3234 21.64 89.2834 21.64Z" fill="url(#paint0_linear_900_628)"/>
<defs>
<linearGradient id="paint0_linear_900_628" x1="-1.63291" y1="18.5" x2="105" y2="18.5" gradientUnits="userSpaceOnUse">
<stop stop-color="#433CB7"/>
<stop offset="1" stop-color="#D96ED0"/>
</linearGradient>
</defs>
</svg>
