<svg width="30" height="31" viewBox="0 0 30 31" fill="none" xmlns="http://www.w3.org/2000/svg">
<path d="M23.4721 16.1639C23.4587 13.7058 24.5705 11.8506 26.8209 10.4843C25.5618 8.68261 23.6596 7.69135 21.148 7.49712C18.7703 7.30959 16.1716 8.88354 15.2206 8.88354C14.2159 8.88354 11.9119 7.5641 10.1035 7.5641C6.36625 7.62438 2.39453 10.5446 2.39453 16.4854C2.39453 18.2401 2.71602 20.053 3.359 21.9239C4.2163 24.3819 7.31062 30.4098 10.5389 30.3093C12.2267 30.2691 13.4189 29.1104 15.6157 29.1104C17.7456 29.1104 18.8507 30.3093 20.7327 30.3093C23.9878 30.2624 26.7874 24.7837 27.6046 22.319C23.2377 20.2628 23.4721 16.2911 23.4721 16.1639ZM19.6812 5.16634C21.5097 2.9963 21.3422 1.0205 21.2887 0.310547C19.6745 0.404314 17.8059 1.40896 16.7409 2.64803C15.5688 3.97416 14.879 5.61508 15.0263 7.46363C16.7744 7.59759 18.3685 6.7001 19.6812 5.16634Z" fill="white"/>
</svg>
